<!-- Generator: Adobe Illustrator 19.0.0, SVG Export Plug-In  -->
<svg version="1.1"
	 xmlns="http://www.w3.org/2000/svg" xmlns:xlink="http://www.w3.org/1999/xlink" xmlns:a="http://ns.adobe.com/AdobeSVGViewerExtensions/3.0/"
	 x="0px" y="0px" width="258.495px" height="300.03px" viewBox="0 0 258.495 300.03"
	 style="enable-background:new 0 0 258.495 300.03;" xml:space="preserve">
<style type="text/css">
	.st0{fill:#99BEC4;}
</style>
<defs>
</defs>
<g id="XMLID_15_">
	<path id="XMLID_19_" class="st0" d="M189.023,90.183c16.437,27.432,21.51,55.122,15.078,82.298
		c-4.817,20.353-14.65,32.813-14.749,32.936l3.292,2.642l3.287,2.648c0.445-0.552,10.969-13.792,16.286-35.866
		c4.889-20.297,6.09-52.212-15.952-89L189.023,90.183z"/>
	<path id="XMLID_18_" class="st0" d="M228.894,58.098l-6.915,4.843c14.407,20.57,23.385,42.348,26.684,64.726
		c2.639,17.901,1.679,36.258-2.855,54.563c-7.768,31.364-23.548,51.978-23.707,52.183l6.667,5.179
		c0.686-0.882,16.899-21.99,25.149-54.989C261.547,154.085,263.399,107.365,228.894,58.098z"/>
	<path id="XMLID_16_" class="st0" d="M93.27,74H0v149h65.01v-8H9V83h87.35l2.36-2.2l73.9-62.34l-0.03,263.85l-77.09-65.16L93.13,215
		h-2.6v8.41l90.48,76.62L181.06,0L93.27,74z"/>
</g>
</svg>