<!-- Generator: Adobe Illustrator 19.0.0, SVG Export Plug-In  -->
<svg version="1.1"
	 xmlns="http://www.w3.org/2000/svg" xmlns:xlink="http://www.w3.org/1999/xlink" xmlns:a="http://ns.adobe.com/AdobeSVGViewerExtensions/3.0/"
	 x="0px" y="0px" width="80px" height="80px" viewBox="0 0 80 80" style="enable-background:new 0 0 80 80;" xml:space="preserve">
<style type="text/css">
	.st0{fill:#FFFFFF;}
</style>
<defs>
</defs>
<g id="XMLID_15_">
	<path id="XMLID_22_" class="st0" d="M40,0C17.944,0,0,17.944,0,40s17.944,40,40,40c22.056,0,40-17.944,40-40S62.056,0,40,0z
		 M40,75.424C20.467,75.424,4.576,59.532,4.576,40S20.467,4.576,40,4.576S75.424,20.468,75.424,40S59.533,75.424,40,75.424z"/>
	<path id="XMLID_19_" class="st0" d="M56.162,49.067c-3.126-1.011-5.226-3.874-5.226-7.124c0-2.892,1.636-5.479,4.269-6.751
		l0.844-0.407l-0.471-0.811c-0.19-0.328-1.969-3.231-5.719-4.19c-2.966-0.758-6.296-0.092-9.903,1.982
		c-1.566-0.946-6.624-3.578-10.659-0.903c-0.817,0.453-9.188,5.494-4.825,19.046c0.128,0.304,3.169,7.43,6.774,10.105
		c0.982,0.936,3.485,2.104,6.343,0.159c0.495-0.201,3.767-1.438,5.804,0.009c0.776,0.531,2.132,1.133,3.564,1.133
		c1.087,0,2.22-0.347,3.177-1.335c0.453-0.393,4.484-3.996,6.58-9.698l0.064-0.175l-0.061-0.86L56.162,49.067z M48.977,58.688
		l-0.067,0.063c-1.753,1.842-4.424,0.073-4.521,0.008c-1.075-0.764-2.32-1.013-3.487-1.013c-2.113,0-3.968,0.817-4.086,0.87
		l-0.142,0.08c-2.419,1.691-4.074,0.209-4.25,0.04l-0.102-0.088c-3.238-2.361-6.219-9.343-6.223-9.343
		c-4.062-12.626,3.708-16.755,4.038-16.923l0.095-0.056c3.753-2.519,9.159,1.136,9.214,1.173l0.463,0.318l0.479-0.29
		c3.374-2.039,6.416-2.734,9.041-2.061c2.096,0.536,3.447,1.832,4.126,2.655c-2.709,1.685-4.354,4.598-4.354,7.822
		c0,3.712,2.218,7.013,5.603,8.467C52.717,55.464,49.015,58.655,48.977,58.688z"/>
	<path id="XMLID_16_" class="st0" d="M48.756,19.6l-0.048-0.916l-0.912,0.098c-0.084,0.009-8.393,1.01-8.961,10.293l-0.061,0.986
		l0.986-0.067C39.856,29.988,49.266,29.237,48.756,19.6z M47.033,20.706c-0.19,5.398-4.356,6.956-6.353,7.392
		C41.449,22.85,45.23,21.199,47.033,20.706z"/>
</g>
</svg>