<!-- Generator: Adobe Illustrator 19.0.0, SVG Export Plug-In  -->
<svg version="1.1"
	 xmlns="http://www.w3.org/2000/svg" xmlns:xlink="http://www.w3.org/1999/xlink" xmlns:a="http://ns.adobe.com/AdobeSVGViewerExtensions/3.0/"
	 x="0px" y="0px" width="80px" height="80px" viewBox="0 0 80 80" style="enable-background:new 0 0 80 80;" xml:space="preserve">
<style type="text/css">
	.st0{fill:#FFFFFF;}
</style>
<defs>
</defs>
<g id="XMLID_15_">
	<path id="XMLID_30_" class="st0" d="M40,0C17.944,0,0,17.944,0,40s17.944,40,40,40s40-17.944,40-40S62.056,0,40,0z M40,75.424
		C20.467,75.424,4.576,59.532,4.576,40S20.467,4.576,40,4.576S75.424,20.468,75.424,40C75.424,59.532,59.533,75.424,40,75.424z"/>
	<path id="XMLID_27_" class="st0" d="M48.753,22.854c-0.504-0.504-1.143-1.048-1.924-1.551l1.115-2.347
		c0.147-0.368,0-0.809-0.368-0.956c-0.368-0.147-0.809,0-0.956,0.368l-1.058,2.227c-1.451-0.696-3.267-1.198-5.488-1.198
		c-2.247,0-4.141,0.456-5.71,1.194l-1.056-2.224C33.16,18,32.718,17.853,32.351,18c-0.368,0.147-0.515,0.588-0.368,0.956
		l1.109,2.336c-3.161,2.019-4.672,5.176-4.861,7.528l-0.074,0.743h23.683l-0.074-0.743C51.621,27.275,50.738,24.913,48.753,22.854z
		 M30,28.563v-0.355c0-3.163,3.676-7.348,10.222-7.348c2.079,0,3.763,0.486,5.164,1.232c0.065,0.072,0.127,0.133,0.223,0.172
		c0.044,0.044,0.106,0.232,0.172,0.239c2.634,1.576,4.019,4.06,4.443,6.06H30z"/>
	<path id="XMLID_24_" class="st0" d="M23,31.165c-2.059,0-4,1.618-4,3.678V45.14c0,2.059,1.941,3.678,4,3.678
		c2.059,0,4-1.618,4-3.678V34.843C27,32.783,25.059,31.165,23,31.165z M25,45.14c0,1.25-0.75,2.207-2,2.207s-2-0.956-2-2.207V34.843
		c0-1.25,0.75-2.207,2-2.207s2,0.956,2,2.207V45.14z"/>
	<path id="XMLID_21_" class="st0" d="M56.5,31.165c-2.059,0-3.5,1.618-3.5,3.678V45.14c0,2.059,1.441,3.678,3.5,3.678
		S60,47.2,60,45.14V34.843C60,32.783,58.559,31.165,56.5,31.165z M59,45.14c0,1.25-0.75,2.207-2,2.207s-2-0.956-2-2.207V34.843
		c0-1.25,0.75-2.207,2-2.207s2,0.956,2,2.207V45.14z"/>
	<path id="XMLID_18_" class="st0" d="M28,52.563h3v6.552c0,1.618,1.382,2.942,3,2.942c1.618,0,3-1.324,3-2.942v-6.552h6v6.552
		c0,1.618,1.382,2.942,3,2.942c1.618,0,3-1.324,3-2.942v-6.552h3v-21H28V52.563z M30,32.636l-0.297-0.073H50v19h-3v7.552
		c0,0.809-0.691,1.471-1.5,1.471S44,59.924,44,59.115v-7.552h-9v7.552c0,0.809-0.691,1.471-1.5,1.471S32,59.924,32,59.115v-7.552h-2
		V32.636z"/>
	<path id="XMLID_17_" class="st0" d="M36.322,23.81c-0.809,0-1.471,0.662-1.471,1.471c0,0.809,0.662,1.471,1.471,1.471
		c0.809,0,1.471-0.662,1.471-1.471C37.793,24.472,37.131,23.81,36.322,23.81z"/>
	<path id="XMLID_16_" class="st0" d="M43.678,23.81c-0.809,0-1.471,0.662-1.471,1.471c0,0.809,0.662,1.471,1.471,1.471
		c0.809,0,1.471-0.662,1.471-1.471C45.149,24.472,44.487,23.81,43.678,23.81z"/>
</g>
</svg>