<!-- Generator: Adobe Illustrator 19.0.0, SVG Export Plug-In  -->
<svg version="1.1"
	 xmlns="http://www.w3.org/2000/svg" xmlns:xlink="http://www.w3.org/1999/xlink" xmlns:a="http://ns.adobe.com/AdobeSVGViewerExtensions/3.0/"
	 x="0px" y="0px" width="353px" height="250px" viewBox="0 0 353 250" style="enable-background:new 0 0 353 250;"
	 xml:space="preserve">
<style type="text/css">
	.st0{fill:#99BEC4;}
</style>
<defs>
</defs>
<g id="XMLID_15_">
	<path id="XMLID_22_" class="st0" d="M353,214V0H0v250h353v-10H10V10h333v204H353z"/>
	<path id="XMLID_19_" class="st0" d="M302,37H52v70h250V37z M292,97H62V47h230V97z"/>
	<path id="XMLID_16_" class="st0" d="M81.25,78.721c2.175,0,4.221-0.541,6.022-1.485l-0.483,0.504l10.943,10.497l6.922-7.217
		L93.711,70.523l-0.719,0.75c0.799-1.686,1.259-3.563,1.259-5.552c0-7.18-5.82-13-13-13s-13,5.82-13,13S74.07,78.721,81.25,78.721z
		 M81.25,62.721c1.654,0,3,1.346,3,3s-1.346,3-3,3s-3-1.346-3-3S79.596,62.721,81.25,62.721z"/>
</g>
</svg>