<!-- Generator: Adobe Illustrator 19.0.0, SVG Export Plug-In  -->
<svg version="1.1"
	 xmlns="http://www.w3.org/2000/svg" xmlns:xlink="http://www.w3.org/1999/xlink" xmlns:a="http://ns.adobe.com/AdobeSVGViewerExtensions/3.0/"
	 x="0px" y="0px" width="367.624px" height="367.088px" viewBox="0 0 367.624 367.088"
	 style="enable-background:new 0 0 367.624 367.088;" xml:space="preserve">
<style type="text/css">
	.st0{fill:#99BEC4;}
</style>
<defs>
</defs>
<g id="XMLID_15_">
	<polygon id="XMLID_18_" class="st0" points="360.554,6.464 360.518,6.5 354.018,0 302,52.018 308.5,58.518 59.018,308 52.018,301 
		0,353.018 7,360.018 7.07,360.088 14.07,367.088 367.624,13.534 	"/>
	<path id="XMLID_17_" class="st0" d="M186.777,103.786l-0.863-9.963c-47.749,4.142-70.148,29.449-80.531,49.95
		c-11.177,22.069-11.053,42.946-11.042,43.824l10-0.115c-0.002-0.194-0.061-19.62,10.137-39.532
		C127.952,121.637,152.277,106.778,186.777,103.786z"/>
	<path id="XMLID_16_" class="st0" d="M82.857,130.251c19.979-38.444,55.306-59.601,104.999-62.882l-0.658-9.979
		C120.657,61.784,88.904,96.93,73.984,125.64c-16.076,30.933-16.425,60.445-16.432,61.687l10,0.057
		C67.555,187.103,67.883,159.064,82.857,130.251z"/>
</g>
</svg>