<!-- Generator: Adobe Illustrator 19.0.0, SVG Export Plug-In  -->
<svg version="1.1"
	 xmlns="http://www.w3.org/2000/svg" xmlns:xlink="http://www.w3.org/1999/xlink" xmlns:a="http://ns.adobe.com/AdobeSVGViewerExtensions/3.0/"
	 x="0px" y="0px" width="940.063px" height="123.765px" viewBox="0 0 940.063 123.765"
	 style="enable-background:new 0 0 940.063 123.765;" xml:space="preserve">
<style type="text/css">
	.st0{fill:#58585B;}
</style>
<defs>
</defs>
<g id="XMLID_15_">
	<polygon id="XMLID_30_" class="st0" points="79.355,49.971 16.104,49.971 16.104,0 0,0 0,121.689 16.104,121.689 16.104,64.414 
		79.355,64.414 79.355,121.689 95.542,121.689 95.542,0 79.355,0 	"/>
	<path id="XMLID_27_" class="st0" d="M156.387,31.626c-12.507,0-22.509,4.013-30.007,12.036
		c-7.499,8.024-11.248,19.369-11.248,34.033c0,14.609,3.749,25.939,11.248,33.991c7.498,8.052,17.5,12.078,30.007,12.078
		c12.562,0,22.591-4.026,30.09-12.078c7.498-8.052,11.248-19.382,11.248-33.991c0-14.664-3.75-26.009-11.248-34.033
		C178.978,35.639,168.948,31.626,156.387,31.626z M174.565,102.971c-4.648,5.673-10.708,8.509-18.179,8.509
		s-13.53-2.836-18.179-8.509c-4.648-5.672-6.973-14.097-6.973-25.275c0-11.233,2.324-19.687,6.973-25.359
		c4.648-5.672,10.708-8.508,18.179-8.508s13.53,2.836,18.179,8.508c4.648,5.673,6.973,14.126,6.973,25.359
		C181.538,88.874,179.214,97.299,174.565,102.971z"/>
	<polygon id="XMLID_26_" class="st0" points="292.104,100.771 272.183,33.618 257.905,33.618 238.066,100.771 221.88,33.618 
		204.531,33.618 231.094,121.689 246.035,121.689 265.044,56.943 284.136,121.689 299.077,121.689 325.557,33.618 308.291,33.618 	
		"/>
	<rect id="XMLID_25_" x="383.164" y="33.618" class="st0" width="15.688" height="88.071"/>
	<rect id="XMLID_24_" x="383.164" class="st0" width="15.688" height="16.934"/>
	<path id="XMLID_23_" class="st0" d="M442.058,108.2c-1.522-1.632-2.283-5.464-2.283-11.496V45.903h14.277V33.618h-14.277V11.704
		H424.17v21.914h-10.874v12.285h10.874v49.971c0,6.198,0.359,11.096,1.079,14.692c0.719,3.598,2.573,6.544,5.562,8.84
		s7.691,3.445,14.111,3.445c4.039,0,7.774-0.332,11.206-0.996v-11.87c-2.49,0.443-5.092,0.664-7.803,0.664
		C445.669,110.649,443.58,109.833,442.058,108.2z"/>
	<polygon id="XMLID_22_" class="st0" points="591.182,100.771 571.26,33.618 556.982,33.618 537.144,100.771 520.957,33.618 
		503.608,33.618 530.171,121.689 545.112,121.689 564.121,56.943 583.213,121.689 598.154,121.689 624.634,33.618 607.368,33.618 	
		"/>
	<path id="XMLID_19_" class="st0" d="M672.778,31.626c-12.507,0-22.51,4.013-30.008,12.036
		c-7.499,8.024-11.247,19.369-11.247,34.033c0,14.609,3.748,25.939,11.247,33.991c7.498,8.052,17.501,12.078,30.008,12.078
		c12.562,0,22.591-4.026,30.09-12.078c7.498-8.052,11.248-19.382,11.248-33.991c0-14.664-3.75-26.009-11.248-34.033
		C695.369,35.639,685.34,31.626,672.778,31.626z M690.957,102.971c-4.648,5.673-10.708,8.509-18.179,8.509
		s-13.53-2.836-18.179-8.509c-4.648-5.672-6.973-14.097-6.973-25.275c0-11.233,2.324-19.687,6.973-25.359
		c4.648-5.672,10.708-8.508,18.179-8.508s13.53,2.836,18.179,8.508c4.648,5.673,6.973,14.126,6.973,25.359
		C697.93,88.874,695.605,97.299,690.957,102.971z"/>
	<path id="XMLID_18_" class="st0" d="M747.319,45.903V33.618h-15.688v88.071h15.688V59.434c5.699-8.355,12.534-12.534,20.503-12.534
		c4.15,0,7.332,0.332,9.546,0.996V32.29c-2.546-0.442-4.926-0.664-7.139-0.664C761.541,31.626,753.904,36.386,747.319,45.903z"/>
	<polygon id="XMLID_17_" class="st0" points="857.637,33.618 837.881,33.618 803.931,68.979 803.931,0 788.242,0 788.242,121.689 
		803.931,121.689 803.931,86.66 813.726,76.948 842.363,121.689 861.04,121.689 824.268,66.406 	"/>
	<path id="XMLID_16_" class="st0" d="M932.302,78.11c-5.175-3.431-13.088-6.434-23.74-9.007c-10.653-2.573-17.307-4.62-19.963-6.143
		c-2.656-1.521-3.984-3.997-3.984-7.429c0-3.818,1.729-6.724,5.188-8.716c3.458-1.992,7.816-2.988,13.074-2.988
		c11.897,0,18.123,4.15,18.677,12.451h15.605c-0.498-16.436-12.285-24.653-35.361-24.653c-9.961,0-17.917,2.394-23.865,7.18
		c-5.949,4.787-8.923,10.833-8.923,18.138c0,8.08,2.393,13.725,7.18,16.934c4.786,3.21,12.368,6.115,22.744,8.716
		c10.376,2.602,17.225,4.718,20.545,6.35c3.32,1.633,4.98,4.441,4.98,8.426c0,4.04-1.702,7.401-5.105,10.085
		c-3.403,2.685-8.342,4.026-14.816,4.026c-14.499,0-21.804-5.367-21.914-16.104h-15.688c1.106,18.926,13.696,28.389,37.769,28.389
		c10.791,0,19.382-2.643,25.773-7.928c6.392-5.284,9.588-11.938,9.588-19.963C940.063,87.463,937.476,81.542,932.302,78.11z"/>
</g>
</svg>