<!-- Generator: Adobe Illustrator 19.0.0, SVG Export Plug-In  -->
<svg version="1.1"
	 xmlns="http://www.w3.org/2000/svg" xmlns:xlink="http://www.w3.org/1999/xlink" xmlns:a="http://ns.adobe.com/AdobeSVGViewerExtensions/3.0/"
	 x="0px" y="0px" width="300px" height="300px" viewBox="0 0 300 300" style="enable-background:new 0 0 300 300;"
	 xml:space="preserve">
<style type="text/css">
	.st0{fill:#99BEC4;}
</style>
<defs>
</defs>
<g id="XMLID_15_">
	
		<rect id="XMLID_26_" x="144.869" y="71.856" transform="matrix(0.0013 1 -1 0.0013 236.7768 -59.0885)" class="st0" width="6.205" height="34.288"/>
	
		<rect id="XMLID_25_" x="144.797" y="86.123" transform="matrix(0.0013 1 -1 0.0013 250.9735 -44.7672)" class="st0" width="6.205" height="34.288"/>
	
		<rect id="XMLID_24_" x="144.722" y="100.393" transform="matrix(0.0013 1 -1 0.0013 265.1681 -30.4417)" class="st0" width="6.205" height="34.288"/>
	<path id="XMLID_23_" class="st0" d="M205.166,87.883l5.143,2.242c0.429-0.979,10.215-24.267-15.779-49.906l-3.94,3.994
		C213.712,67.019,205.526,87.042,205.166,87.883z"/>
	<path id="XMLID_22_" class="st0" d="M196.257,81.98l2.804,0.06l2.804,0.066c0.018-0.767,0.283-18.914-13.697-30.694l-3.615,4.29
		C196.435,65.715,196.26,81.818,196.257,81.98z"/>
	<path id="XMLID_18_" class="st0" d="M144.925,204.264l0.036,45.81l-32.959-0.027l0.025,6.233l71.696,0.06l0.013-6.233
		l-32.425-0.027l0.37-45.74c29.46-1.281,53.319-25.648,53.319-55.422v-3.338h-14.166l-0.536-50.193L190,82.647v-0.063l0.268-0.062
		c-0.014-0.386,0.009-9.563-5.283-18.886C180.077,54.989,169,44.629,150,44.167v-0.013c0,0.001-0.43,0.005-0.5,0.006
		c-0.07-0.001-0.5-0.005-0.5-0.006v0.013c-21,0.462-30.617,10.822-35.525,19.469c-5.292,9.323-5.7,18.5-5.714,18.886l-0.01-0.049
		l0.212,63.106H93v3.338C93,178.232,116.098,202.306,144.925,204.264z M149.146,50.383c33.124,0.708,35.092,30.307,35.182,32.198
		l-0.198,62.999h-69.934l-0.22-62.992C114.07,80.638,116.056,51.09,149.146,50.383z M184.286,151.58
		c-0.487,3-1.678,8.318-4.562,13.399c-6.02,10.607-16.311,16.214-30.585,16.441l0.099,6.289
		c20.724-0.329,30.965-10.975,35.907-19.681c3.651-6.433,4.97-13.448,5.441-16.448h7.331c-1.614,26-23.039,46.128-49.142,46.128
		c-26.106,0-47.533-20.128-49.147-46.128H184.286z"/>
	<path id="XMLID_16_" class="st0" d="M300,266.48V0H0v300h300v-8H8V8h284v258.48H300z"/>
</g>
</svg>