<!-- Generator: Adobe Illustrator 19.0.0, SVG Export Plug-In  -->
<svg version="1.1"
	 xmlns="http://www.w3.org/2000/svg" xmlns:xlink="http://www.w3.org/1999/xlink" xmlns:a="http://ns.adobe.com/AdobeSVGViewerExtensions/3.0/"
	 x="0px" y="0px" width="356.781px" height="362.207px" viewBox="0 0 356.781 362.207"
	 style="enable-background:new 0 0 356.781 362.207;" xml:space="preserve">
<style type="text/css">
	.st0{fill:#99BEC4;}
</style>
<defs>
</defs>
<g id="XMLID_22_">
	<path id="XMLID_24_" class="st0" d="M55.245,309.033L170.783,193.33l-2.006,112.396l4.999,0.089l9.504,3.113l61.408-187.458
		l-1.619-0.53L356.781,7.066L349.705,0L232.962,116.91L50.237,175.857L52,181.322v4.885h111.764L71.64,278.463L58,266.24v-1.033H48
		v37h0.409L55.245,309.033z M179.065,289.671l1.901-106.539l49.109-49.179L179.065,289.671z M81.727,176.207l135.755-43.795
		l-43.732,43.795H81.727z M64.563,285.549L58,292.122v-12.454L64.563,285.549z"/>
	<rect id="XMLID_23_" y="352.207" class="st0" width="353" height="10"/>
</g>
</svg>