<!-- Generator: Adobe Illustrator 19.0.0, SVG Export Plug-In  -->
<svg version="1.1"
	 xmlns="http://www.w3.org/2000/svg" xmlns:xlink="http://www.w3.org/1999/xlink" xmlns:a="http://ns.adobe.com/AdobeSVGViewerExtensions/3.0/"
	 x="0px" y="0px" width="80px" height="80px" viewBox="0 0 80 80" style="enable-background:new 0 0 80 80;" xml:space="preserve">
<style type="text/css">
	.st0{fill:#FFFFFF;}
</style>
<defs>
</defs>
<g id="XMLID_15_">
	<path id="XMLID_21_" class="st0" d="M40,0C17.944,0,0,17.944,0,40s17.944,40,40,40s40-17.944,40-40S62.056,0,40,0z M40,75.424
		C20.467,75.424,4.576,59.532,4.576,40C4.576,20.468,20.467,4.576,40,4.576c19.533,0,35.424,15.891,35.424,35.424
		C75.424,59.532,59.533,75.424,40,75.424z"/>
	<path id="XMLID_17_" class="st0" d="M46.174,42.965l-2.054-1.598c-0.628-0.511-1.481-1.197-1.481-2.452
		c0-1.255,0.857-2.054,1.598-2.795c2.394-1.883,4.791-3.874,4.791-8.096c0-4.339-2.74-7.698-4.05-7.698h3.536l3.649-2H40.408
		c-3.08,0-6.959,0.424-10.214,3.106c-2.452,2.109-3.649,5.005-3.649,7.628c0,4.448,3.423,8.95,9.469,8.95
		c0.573,0,1.197-0.062,1.828-0.117c-0.285,0.686-0.569,1.253-0.569,2.224c0,1.766,0.912,2.852,1.711,3.878
		c-2.565,0.172-7.36,0.456-10.896,2.623c-3.368,1.996-4.393,4.908-4.393,6.962c0,4.222,3.996,8.159,12.268,8.159
		c9.808,0,15.001-5.422,15.001-10.783C50.965,47.019,48.684,45.078,46.174,42.965z M38.697,36.408
		c-4.908,0-7.134-6.335-7.134-10.155c0-1.485,0.285-3.021,1.255-4.222c0.912-1.142,2.511-1.887,3.996-1.887
		c4.736,0,7.188,6.393,7.188,10.498c0,1.029-0.113,2.854-1.427,4.167C41.663,35.722,40.123,36.404,38.697,36.408z M38.755,59.342
		c-6.105,0-10.042-2.908-10.042-6.959c0-4.05,3.653-5.419,4.908-5.875c2.397-0.799,5.477-0.916,5.992-0.916
		c0.569,0,0.854,0,1.31,0.058c4.339,3.08,6.218,4.62,6.218,7.531C47.14,56.718,44.232,59.342,38.755,59.342z"/>
	<polygon id="XMLID_16_" class="st0" points="60,36.326 60,30.326 58,30.326 58,36.326 51,36.326 51,39.326 58,39.326 58,46.326 
		60,46.326 60,39.326 66,39.326 66,36.326 	"/>
</g>
</svg>