<!-- Generator: Adobe Illustrator 19.0.0, SVG Export Plug-In  -->
<svg version="1.1"
	 xmlns="http://www.w3.org/2000/svg" xmlns:xlink="http://www.w3.org/1999/xlink" xmlns:a="http://ns.adobe.com/AdobeSVGViewerExtensions/3.0/"
	 x="0px" y="0px" width="80px" height="80px" viewBox="0 0 80 80" style="enable-background:new 0 0 80 80;" xml:space="preserve">
<style type="text/css">
	.st0{fill:#FFFFFF;}
</style>
<defs>
</defs>
<g id="XMLID_15_">
	<path id="XMLID_19_" class="st0" d="M40,0C17.944,0,0,17.944,0,40s17.944,40,40,40s40-17.944,40-40S62.056,0,40,0z M40,75.423
		C20.467,75.423,4.576,59.532,4.576,40S20.467,4.576,40,4.576S75.424,20.468,75.424,40S59.533,75.423,40,75.423z"/>
	<path id="XMLID_18_" class="st0" d="M28.725,30.794c-1.264,0-2,1.024-2,2.288v18.92c0,1.264,0.736,2.288,2,2.288s2-1.024,2-2.288
		v-18.92C30.725,31.819,29.989,30.794,28.725,30.794z"/>
	<path id="XMLID_17_" class="st0" d="M28.559,20.115c-0.603,0-1.192,0.244-1.617,0.671c-0.427,0.425-0.671,1.014-0.671,1.617
		c0,0.603,0.244,1.192,0.671,1.62c0.425,0.425,1.014,0.669,1.617,0.669s1.192-0.244,1.617-0.669c0.427-0.427,0.671-1.017,0.671-1.62
		c0-0.603-0.244-1.192-0.671-1.617C29.751,20.359,29.161,20.115,28.559,20.115z"/>
	<path id="XMLID_16_" class="st0" d="M48.437,32.574c-2.395,0-4.712,0.772-6.712,2.077v-1.568c0-1.264-0.736-2.288-2-2.288
		c-1.264,0-2,1.024-2,2.288v18.92c0,1.264,0.736,2.288,2,2.288c1.264,0,2-1.024,2-2.288V43.57c0-3.54,2.96-6.42,6.5-6.42
		c3.54,0,6.5,2.88,6.5,6.42v8.94c0,1.264,1.236,2.288,2.5,2.288c1.264,0,2.5-1.024,2.5-2.288v-8.94
		C59.725,37.507,54.5,32.574,48.437,32.574z"/>
</g>
</svg>