<!-- Generator: Adobe Illustrator 19.0.0, SVG Export Plug-In  -->
<svg version="1.1"
	 xmlns="http://www.w3.org/2000/svg" xmlns:xlink="http://www.w3.org/1999/xlink" xmlns:a="http://ns.adobe.com/AdobeSVGViewerExtensions/3.0/"
	 x="0px" y="0px" width="1720.42px" height="157.383px" viewBox="0 0 1720.42 157.383"
	 style="enable-background:new 0 0 1720.42 157.383;" xml:space="preserve">
<style type="text/css">
	.st0{fill:#58585B;}
</style>
<defs>
</defs>
<g id="XMLID_15_">
	<polygon id="XMLID_45_" class="st0" points="16.104,66.074 83.257,66.074 83.257,51.631 16.104,51.631 16.104,14.443 
		87.905,14.443 87.905,0 0,0 0,121.689 90.728,121.689 90.728,107.246 16.104,107.246 	"/>
	<polygon id="XMLID_44_" class="st0" points="181.04,33.618 161.616,33.618 142.275,64.414 122.935,33.618 103.511,33.618 
		133.477,75.952 100.938,121.689 120.361,121.689 142.275,87.324 164.189,121.689 183.613,121.689 151.074,75.786 	"/>
	<path id="XMLID_41_" class="st0" d="M237.153,31.626c-9.795,0-18.179,4.179-25.151,12.534V33.618h-15.688v121.938h15.688v-40.674
		c6.529,5.922,14.554,8.882,24.072,8.882c10.735,0,19.631-4.192,26.687-12.576s10.583-19.797,10.583-34.24
		c0-13.89-3.154-24.916-9.463-33.079C257.573,35.707,248.663,31.626,237.153,31.626z M251.182,102.805
		c-3.984,5.783-9.353,8.675-16.104,8.675c-8.688,0-16.381-3.569-23.076-10.708V58.936c7.139-10.071,15.052-15.107,23.74-15.107
		c6.751,0,12.008,2.809,15.771,8.425c3.763,5.617,5.645,13.85,5.645,24.695C257.158,88.403,255.166,97.022,251.182,102.805z"/>
	<rect id="XMLID_40_" x="290.859" class="st0" width="15.688" height="121.689"/>
	<path id="XMLID_37_" class="st0" d="M365.317,31.626c-12.507,0-22.509,4.013-30.007,12.036
		c-7.499,8.024-11.248,19.369-11.248,34.033c0,14.609,3.749,25.939,11.248,33.991c7.498,8.052,17.5,12.078,30.007,12.078
		c12.562,0,22.591-4.026,30.09-12.078c7.498-8.052,11.248-19.382,11.248-33.991c0-14.664-3.75-26.009-11.248-34.033
		C387.909,35.639,377.879,31.626,365.317,31.626z M383.496,102.971c-4.648,5.673-10.708,8.509-18.179,8.509
		s-13.53-2.836-18.179-8.509c-4.648-5.672-6.973-14.097-6.973-25.275c0-11.233,2.324-19.687,6.973-25.359
		c4.648-5.672,10.708-8.508,18.179-8.508s13.53,2.836,18.179,8.508c4.648,5.673,6.973,14.126,6.973,25.359
		C390.469,88.874,388.145,97.299,383.496,102.971z"/>
	<path id="XMLID_36_" class="st0" d="M439.858,45.903V33.618H424.17v88.071h15.688V59.434c5.699-8.355,12.534-12.534,20.503-12.534
		c4.15,0,7.332,0.332,9.546,0.996V32.29c-2.546-0.442-4.926-0.664-7.139-0.664C454.08,31.626,446.443,36.386,439.858,45.903z"/>
	<path id="XMLID_33_" class="st0" d="M516.475,31.626c-12.285,0-22.233,4.081-29.841,12.243
		c-7.609,8.163-11.414,19.438-11.414,33.826c0,14.499,3.929,25.802,11.787,33.908c7.857,8.107,18.262,12.161,31.211,12.161
		c10.071,0,18.607-2.462,25.608-7.388c7-4.925,11.109-11.925,12.327-21.001h-16.187c-0.222,5.146-2.532,9.117-6.931,11.911
		c-4.399,2.795-9.338,4.192-14.817,4.192c-7.25,0-13.351-2.462-18.303-7.388c-4.953-4.925-7.761-12.479-8.425-22.661h66.323v-3.735
		c0-14.664-3.75-26.009-11.248-34.033C539.066,35.639,529.036,31.626,516.475,31.626z M491.821,69.146
		c1.217-8.521,4.067-14.872,8.55-19.051c4.482-4.178,9.85-6.267,16.104-6.267c6.419,0,11.842,2.104,16.27,6.309
		c4.427,4.206,7.276,10.542,8.55,19.009H491.821z"/>
	<path id="XMLID_30_" class="st0" d="M656.177,31.626c-12.507,0-22.509,4.013-30.007,12.036
		c-7.499,8.024-11.248,19.369-11.248,34.033c0,14.609,3.749,25.939,11.248,33.991c7.498,8.052,17.5,12.078,30.007,12.078
		c12.562,0,22.591-4.026,30.09-12.078c7.498-8.052,11.248-19.382,11.248-33.991c0-14.664-3.75-26.009-11.248-34.033
		C678.768,35.639,668.738,31.626,656.177,31.626z M674.355,102.971c-4.648,5.673-10.708,8.509-18.179,8.509
		s-13.53-2.836-18.179-8.509c-4.648-5.672-6.973-14.097-6.973-25.275c0-11.233,2.324-19.687,6.973-25.359
		c4.648-5.672,10.708-8.508,18.179-8.508s13.53,2.836,18.179,8.508c4.648,5.673,6.973,14.126,6.973,25.359
		C681.328,88.874,679.004,97.299,674.355,102.971z"/>
	<path id="XMLID_29_" class="st0" d="M770.811,96.704c-7.25,9.408-15.246,14.111-23.989,14.111c-5.866,0-10.072-1.577-12.617-4.731
		c-2.546-3.154-3.818-8.328-3.818-15.522V33.618h-15.688v57.607c0,21.693,9.933,32.539,29.8,32.539
		c9.739,0,18.511-4.427,26.313-13.281v11.206h15.605V33.618h-15.605V96.704z"/>
	<path id="XMLID_28_" class="st0" d="M825.264,45.903V33.618h-15.688v88.071h15.688V59.434c5.699-8.355,12.534-12.534,20.503-12.534
		c4.15,0,7.332,0.332,9.546,0.996V32.29c-2.546-0.442-4.926-0.664-7.139-0.664C839.485,31.626,831.849,36.386,825.264,45.903z"/>
	<path id="XMLID_27_" class="st0" d="M947.036,43.828c5.257,0,9.753,1.384,13.489,4.15c3.734,2.768,5.713,6.779,5.936,12.036h16.104
		c-1.162-9.186-4.969-16.214-11.414-21.084c-6.447-4.869-14.484-7.305-24.114-7.305c-12.507,0-22.509,4.013-30.007,12.036
		c-7.5,8.024-11.248,19.369-11.248,34.033c0,14.609,3.748,25.939,11.248,33.991c7.498,8.052,17.5,12.078,30.007,12.078
		c9.63,0,17.667-2.435,24.114-7.305c6.445-4.869,10.252-11.897,11.414-21.084h-16.104c-0.223,5.202-2.201,9.187-5.936,11.953
		c-3.736,2.768-8.232,4.15-13.489,4.15c-7.471,0-13.53-2.836-18.179-8.509c-4.648-5.672-6.973-14.097-6.973-25.275
		c0-11.233,2.324-19.687,6.973-25.359C933.506,46.664,939.565,43.828,947.036,43.828z"/>
	<path id="XMLID_24_" class="st0" d="M1032.035,31.626c-12.506,0-22.51,4.013-30.006,12.036c-7.5,8.024-11.248,19.369-11.248,34.033
		c0,14.609,3.748,25.939,11.248,33.991c7.496,8.052,17.5,12.078,30.006,12.078c12.562,0,22.592-4.026,30.092-12.078
		c7.496-8.052,11.246-19.382,11.246-33.991c0-14.664-3.75-26.009-11.246-34.033C1054.627,35.639,1044.598,31.626,1032.035,31.626z
		 M1050.215,102.971c-4.648,5.673-10.709,8.509-18.18,8.509s-13.529-2.836-18.178-8.509c-4.648-5.672-6.973-14.097-6.973-25.275
		c0-11.233,2.324-19.687,6.973-25.359c4.648-5.672,10.707-8.508,18.178-8.508s13.531,2.836,18.18,8.508
		c4.648,5.673,6.973,14.126,6.973,25.359C1057.188,88.874,1054.863,97.299,1050.215,102.971z"/>
	<path id="XMLID_23_" class="st0" d="M1182.861,31.626c-3.93,0-7.941,0.927-12.035,2.78c-4.096,1.854-9.076,6.24-14.941,13.157
		c-3.543-10.625-11.76-15.938-24.654-15.938c-9.02,0-17.238,4.399-24.652,13.198V33.618h-15.689v88.071h15.689V58.604
		c7.248-9.407,14.664-14.111,22.246-14.111c4.98,0,8.521,1.55,10.625,4.648c2.102,3.1,3.154,8.301,3.154,15.605v56.943h15.605
		V58.604c7.305-9.407,14.746-14.111,22.328-14.111c4.926,0,8.439,1.55,10.543,4.648c2.102,3.1,3.154,8.301,3.154,15.605v56.943
		h15.688V64.082C1209.922,42.445,1200.902,31.626,1182.861,31.626z"/>
	<path id="XMLID_22_" class="st0" d="M1324.473,31.626c-3.93,0-7.941,0.927-12.035,2.78c-4.096,1.854-9.076,6.24-14.941,13.157
		c-3.543-10.625-11.76-15.938-24.654-15.938c-9.02,0-17.238,4.399-24.652,13.198V33.618H1232.5v88.071h15.689V58.604
		c7.248-9.407,14.664-14.111,22.246-14.111c4.98,0,8.521,1.55,10.625,4.648c2.102,3.1,3.154,8.301,3.154,15.605v56.943h15.605
		V58.604c7.305-9.407,14.746-14.111,22.328-14.111c4.926,0,8.439,1.55,10.543,4.648c2.102,3.1,3.154,8.301,3.154,15.605v56.943
		h15.688V64.082C1351.533,42.445,1342.514,31.626,1324.473,31.626z"/>
	<path id="XMLID_21_" class="st0" d="M1429.893,96.704c-7.25,9.408-15.246,14.111-23.988,14.111c-5.867,0-10.072-1.577-12.617-4.731
		c-2.547-3.154-3.818-8.328-3.818-15.522V33.618h-15.689v57.607c0,21.693,9.934,32.539,29.801,32.539
		c9.738,0,18.51-4.427,26.312-13.281v11.206h15.605V33.618h-15.605V96.704z"/>
	<path id="XMLID_20_" class="st0" d="M1510.658,31.626c-9.74,0-18.51,4.399-26.312,13.198V33.618h-15.689v88.071h15.689V58.604
		c7.969-9.407,15.938-14.111,23.906-14.111c5.865,0,10.086,1.577,12.658,4.731c2.574,3.154,3.859,8.329,3.859,15.522v56.943h15.689
		V64.082C1540.459,42.445,1530.525,31.626,1510.658,31.626z"/>
	<rect id="XMLID_19_" x="1563.203" class="st0" width="15.689" height="16.934"/>
	<rect id="XMLID_18_" x="1563.203" y="33.618" class="st0" width="15.689" height="88.071"/>
	<path id="XMLID_17_" class="st0" d="M1622.098,108.2c-1.523-1.632-2.283-5.464-2.283-11.496V45.903h14.277V33.618h-14.277V11.704
		h-15.605v21.914h-10.875v12.285h10.875v49.971c0,6.198,0.359,11.096,1.078,14.692c0.719,3.598,2.574,6.544,5.562,8.84
		s7.691,3.445,14.111,3.445c4.039,0,7.773-0.332,11.205-0.996v-11.87c-2.49,0.443-5.092,0.664-7.803,0.664
		C1625.707,110.649,1623.617,109.833,1622.098,108.2z"/>
	<path id="XMLID_16_" class="st0" d="M1703.486,33.618l-23.324,68.896l-23.326-68.896h-16.934l33.287,88.071
		c-4.926,14.166-11.262,21.25-19.01,21.25c-2.545,0-5.035-0.388-7.471-1.162v14.443c2.822,0.774,6.197,1.162,10.127,1.162
		c5.258,0,9.697-1.564,13.324-4.69c3.623-3.127,6.557-6.973,8.799-11.538c2.24-4.565,4.965-11.054,8.176-19.465l33.285-88.071
		H1703.486z"/>
</g>
</svg>