<!-- Generator: Adobe Illustrator 19.0.0, SVG Export Plug-In  -->
<svg version="1.1"
	 xmlns="http://www.w3.org/2000/svg" xmlns:xlink="http://www.w3.org/1999/xlink" xmlns:a="http://ns.adobe.com/AdobeSVGViewerExtensions/3.0/"
	 x="0px" y="0px" width="938.404px" height="125.84px" viewBox="0 0 938.404 125.84"
	 style="enable-background:new 0 0 938.404 125.84;" xml:space="preserve">
<style type="text/css">
	.st0{fill:#58585B;}
</style>
<defs>
</defs>
<g id="XMLID_15_">
	<path id="XMLID_31_" class="st0" d="M58.354,0c-17.1,0-31.101,5.756-42.002,17.266C5.45,28.776,0,43.994,0,62.92
		c0,18.871,5.45,34.075,16.353,45.613c10.901,11.538,24.902,17.307,42.002,17.307c17.044,0,30.989-5.755,41.836-17.266
		c10.846-11.51,16.27-26.729,16.27-45.654s-5.424-34.144-16.27-45.654C89.344,5.756,75.398,0,58.354,0z M88.113,99.111
		c-7.775,8.633-17.75,12.949-29.924,12.949c-12.064,0-21.997-4.33-29.8-12.991c-7.803-8.66-11.704-20.71-11.704-36.15
		c0-15.494,3.915-27.559,11.746-36.191c7.83-8.633,17.86-12.949,30.09-12.949c12.008,0,21.886,4.316,29.634,12.949
		c7.747,8.633,11.621,20.697,11.621,36.191C99.775,78.415,95.887,90.479,88.113,99.111z"/>
	<path id="XMLID_30_" class="st0" d="M191.582,98.779c-7.25,9.408-15.246,14.111-23.989,14.111c-5.866,0-10.072-1.577-12.617-4.731
		c-2.546-3.154-3.818-8.328-3.818-15.522V35.693h-15.688v57.607c0,21.693,9.933,32.539,29.8,32.539
		c9.739,0,18.511-4.427,26.313-13.281v11.206h15.605V35.693h-15.605V98.779z"/>
	<path id="XMLID_29_" class="st0" d="M246.035,47.979V35.693h-15.688v88.071h15.688V61.509c5.699-8.355,12.534-12.534,20.503-12.534
		c4.15,0,7.332,0.332,9.546,0.996V34.365c-2.546-0.442-4.926-0.664-7.139-0.664C260.257,33.701,252.62,38.461,246.035,47.979z"/>
	<path id="XMLID_28_" class="st0" d="M391.174,80.186c-5.175-3.431-13.088-6.433-23.74-9.006
		c-10.653-2.573-17.307-4.62-19.963-6.143c-2.656-1.521-3.984-3.998-3.984-7.429c0-3.818,1.729-6.724,5.188-8.716
		c3.458-1.992,7.816-2.988,13.074-2.988c11.897,0,18.123,4.15,18.677,12.451h15.605c-0.498-16.436-12.285-24.653-35.361-24.653
		c-9.961,0-17.917,2.394-23.865,7.18c-5.949,4.787-8.923,10.833-8.923,18.137c0,8.08,2.393,13.725,7.18,16.934
		c4.786,3.21,12.368,6.115,22.744,8.716c10.376,2.602,17.224,4.718,20.544,6.35c3.32,1.633,4.98,4.441,4.98,8.425
		c0,4.04-1.702,7.402-5.105,10.085c-3.403,2.685-8.342,4.026-14.817,4.026c-14.499,0-21.804-5.367-21.914-16.104h-15.688
		c1.106,18.926,13.696,28.389,37.769,28.389c10.791,0,19.382-2.642,25.774-7.927c6.392-5.284,9.587-11.939,9.587-19.963
		C398.936,89.538,396.348,83.617,391.174,80.186z"/>
	<path id="XMLID_25_" class="st0" d="M452.808,33.701c-12.285,0-22.233,4.082-29.841,12.244
		c-7.609,8.163-11.414,19.438-11.414,33.826c0,14.499,3.929,25.802,11.787,33.909c7.857,8.107,18.262,12.161,31.211,12.161
		c10.071,0,18.607-2.462,25.608-7.388c7-4.925,11.109-11.925,12.327-21.001h-16.187c-0.222,5.146-2.532,9.118-6.931,11.912
		c-4.399,2.795-9.338,4.192-14.817,4.192c-7.25,0-13.351-2.462-18.303-7.388c-4.953-4.925-7.761-12.479-8.425-22.661h66.323v-3.735
		c0-14.664-3.75-26.009-11.248-34.033C475.399,37.714,465.369,33.701,452.808,33.701z M428.154,71.221
		c1.217-8.521,4.067-14.872,8.55-19.05c4.482-4.178,9.85-6.267,16.104-6.267c6.419,0,11.842,2.104,16.27,6.309
		c4.427,4.206,7.276,10.542,8.55,19.009H428.154z"/>
	<path id="XMLID_24_" class="st0" d="M527.349,47.979V35.693h-15.688v88.071h15.688V61.509c5.699-8.355,12.534-12.534,20.503-12.534
		c4.15,0,7.332,0.332,9.546,0.996V34.365c-2.546-0.442-4.926-0.664-7.139-0.664C541.571,33.701,533.934,38.461,527.349,47.979z"/>
	<polygon id="XMLID_23_" class="st0" points="599.234,104.59 575.909,35.693 558.975,35.693 592.261,123.765 606.207,123.765 
		639.493,35.693 622.559,35.693 	"/>
	<rect id="XMLID_22_" x="653.272" y="2.075" class="st0" width="15.688" height="16.934"/>
	<rect id="XMLID_21_" x="653.272" y="35.693" class="st0" width="15.688" height="88.071"/>
	<path id="XMLID_20_" class="st0" d="M727.73,45.903c5.257,0,9.753,1.384,13.488,4.15c3.735,2.768,5.714,6.779,5.936,12.036h16.104
		c-1.162-9.186-4.968-16.214-11.414-21.084c-6.447-4.869-14.484-7.305-24.113-7.305c-12.507,0-22.51,4.013-30.008,12.036
		c-7.499,8.024-11.247,19.369-11.247,34.033c0,14.609,3.748,25.94,11.247,33.992c7.498,8.052,17.501,12.078,30.008,12.078
		c9.629,0,17.666-2.435,24.113-7.305c6.446-4.869,10.252-11.897,11.414-21.084h-16.104c-0.222,5.202-2.2,9.187-5.936,11.953
		c-3.735,2.768-8.231,4.15-13.488,4.15c-7.471,0-13.53-2.835-18.179-8.508c-4.648-5.672-6.973-14.097-6.973-25.276
		c0-11.233,2.324-19.686,6.973-25.359C714.2,48.74,720.259,45.903,727.73,45.903z"/>
	<path id="XMLID_17_" class="st0" d="M812.73,33.701c-12.285,0-22.233,4.082-29.842,12.244
		c-7.609,8.163-11.413,19.438-11.413,33.826c0,14.499,3.929,25.802,11.787,33.909c7.857,8.107,18.262,12.161,31.211,12.161
		c10.071,0,18.606-2.462,25.607-7.388c7-4.925,11.109-11.925,12.327-21.001h-16.187c-0.222,5.146-2.532,9.118-6.932,11.912
		c-4.399,2.795-9.338,4.192-14.816,4.192c-7.25,0-13.352-2.462-18.304-7.388c-4.953-4.925-7.761-12.479-8.425-22.661h66.323v-3.735
		c0-14.664-3.75-26.009-11.248-34.033C835.321,37.714,825.292,33.701,812.73,33.701z M788.077,71.221
		c1.217-8.521,4.067-14.872,8.55-19.05c4.482-4.178,9.85-6.267,16.104-6.267c6.419,0,11.842,2.104,16.27,6.309
		c4.427,4.206,7.276,10.542,8.55,19.009H788.077z"/>
	<path id="XMLID_16_" class="st0" d="M930.642,80.186c-5.175-3.431-13.088-6.433-23.74-9.006
		c-10.653-2.573-17.307-4.62-19.963-6.143c-2.656-1.521-3.984-3.998-3.984-7.429c0-3.818,1.729-6.724,5.188-8.716
		c3.458-1.992,7.816-2.988,13.074-2.988c11.897,0,18.123,4.15,18.677,12.451h15.605C935,41.919,923.213,33.701,900.137,33.701
		c-9.961,0-17.917,2.394-23.865,7.18c-5.949,4.787-8.923,10.833-8.923,18.137c0,8.08,2.393,13.725,7.18,16.934
		c4.786,3.21,12.368,6.115,22.744,8.716c10.376,2.602,17.225,4.718,20.545,6.35c3.32,1.633,4.98,4.441,4.98,8.425
		c0,4.04-1.702,7.402-5.105,10.085c-3.403,2.685-8.342,4.026-14.816,4.026c-14.499,0-21.804-5.367-21.914-16.104h-15.688
		c1.106,18.926,13.696,28.389,37.769,28.389c10.791,0,19.382-2.642,25.773-7.927c6.392-5.284,9.588-11.939,9.588-19.963
		C938.404,89.538,935.816,83.617,930.642,80.186z"/>
</g>
</svg>