<!-- Generator: Adobe Illustrator 19.0.0, SVG Export Plug-In  -->
<svg version="1.1"
	 xmlns="http://www.w3.org/2000/svg" xmlns:xlink="http://www.w3.org/1999/xlink" xmlns:a="http://ns.adobe.com/AdobeSVGViewerExtensions/3.0/"
	 x="0px" y="0px" width="154.747px" height="300px" viewBox="0 0 154.747 300" style="enable-background:new 0 0 154.747 300;"
	 xml:space="preserve">
<style type="text/css">
	.st0{fill:#99BEC4;}
</style>
<defs>
</defs>
<g id="XMLID_15_">
	<path id="XMLID_17_" class="st0" d="M68.056,99.37c1.326-2.183,2.666-4.35,4.031-6.486c22.509-35.225,50.32-64.136,82.66-85.93
		L150.061,0c-33.336,22.465-61.974,52.238-85.118,88.492c-18.471,28.932-33.5,62.03-44.669,98.374
		C1.273,248.684,0.011,299.319,0,299.824L8.384,300c0.011-0.493,1.267-49.887,19.823-110.401
		c2.845-5.607,45.106-87.46,89.341-96.906l-1.751-8.201c-19.262,4.114-39.751,20.093-60.986,47.522
		c17.986-26.628,50.287-69.266,79.674-81.08l-3.128-7.782C109.194,52.062,86.196,76.254,68.056,99.37z"/>
	<rect id="XMLID_16_" x="32" y="291.1" class="st0" width="101" height="8"/>
</g>
</svg>