<!-- Generator: Adobe Illustrator 19.0.0, SVG Export Plug-In  -->
<svg version="1.1"
	 xmlns="http://www.w3.org/2000/svg" xmlns:xlink="http://www.w3.org/1999/xlink" xmlns:a="http://ns.adobe.com/AdobeSVGViewerExtensions/3.0/"
	 x="0px" y="0px" width="299.795px" height="300px" viewBox="0 0 299.795 300" style="enable-background:new 0 0 299.795 300;"
	 xml:space="preserve">
<style type="text/css">
	.st0{fill:#99BEC4;}
</style>
<defs>
</defs>
<g id="XMLID_15_">
	<path id="XMLID_20_" class="st0" d="M299.77,15.02l-0.2-7.46l-6.3,3.99c-28.19,17.84-61.1,21.86-97.83,11.93
		C167.74,16,148.18,2.96,147.99,2.83L143.8,0l-2.05,4.61c-0.55,1.22-1.08,2.45-1.61,3.67l1.44,0.83l0.22,0.12
		c1.54,0.95,3.46,2.07,5.73,3.32c0-0.01,0.01-0.02,0.01-0.03c7.43,4.4,23.93,13.23,45.43,19.07c35.9,9.76,69.71,6.62,98.31-9.04
		c-0.25,15.53-2.01,53.65-12.55,93.99c-7.96,30.5-19.3,56.26-33.7,76.58c-17.29,24.39-39.09,40.97-64.85,49.31
		c-2.39-2.39-7.1-7.35-12.72-14.66c0.1-0.34,0.2-0.69,0.3-1.03c0.21-0.68,0.41-1.36,0.61-2.04c0.2-0.7,0.4-1.4,0.59-2.1
		c0.19-0.68,0.38-1.36,0.56-2.05c0.19-0.7,0.37-1.41,0.55-2.12c0.17-0.68,0.34-1.37,0.5-2.05c0.17-0.72,0.34-1.43,0.5-2.14
		c0.15-0.69,0.31-1.38,0.46-2.06c0.15-0.72,0.3-1.44,0.44-2.16c0.15-0.68,0.28-1.37,0.42-2.06c0.13-0.73,0.27-1.45,0.4-2.17
		c0.12-0.69,0.25-1.38,0.36-2.07c0.13-0.73,0.24-1.45,0.36-2.18c0.11-0.69,0.22-1.38,0.32-2.07c0.11-0.73,0.21-1.45,0.32-2.18
		c0.09-0.69,0.19-1.38,0.28-2.07c0.09-0.73,0.18-1.46,0.27-2.19c0.08-0.69,0.16-1.38,0.24-2.07c0.08-0.73,0.15-1.47,0.23-2.2
		c0.07-0.69,0.14-1.37,0.2-2.06c0.07-0.73,0.13-1.47,0.19-2.21c0.06-0.68,0.11-1.36,0.16-2.04c0.06-0.74,0.11-1.48,0.16-2.22
		c0.04-0.67,0.09-1.35,0.12-2.02c0.05-0.75,0.08-1.49,0.12-2.23c0.03-0.67,0.07-1.34,0.09-2.01c0.04-0.74,0.06-1.48,0.09-2.22
		c0.02-0.66,0.04-1.33,0.06-1.99c0.01-0.33,0.02-0.65,0.02-0.97l49.57,9.75l1.63-8.32l-51.13-10.05c-0.01-0.34-0.01-0.67-0.02-1
		c0-0.64-0.01-1.29-0.02-1.93c-0.01-0.74-0.03-1.47-0.05-2.21c-0.01-0.63-0.03-1.27-0.05-1.9c-0.02-0.74-0.05-1.48-0.08-2.22
		c-0.02-0.62-0.04-1.24-0.07-1.86c-0.03-0.74-0.07-1.47-0.1-2.21c-0.04-0.61-0.06-1.22-0.1-1.82c-0.04-0.74-0.09-1.48-0.13-2.21
		c-0.04-0.6-0.07-1.2-0.11-1.79c-0.05-0.73-0.11-1.46-0.16-2.19c-0.05-0.59-0.09-1.17-0.14-1.76c-0.05-0.73-0.12-1.46-0.18-2.19
		c-0.05-0.57-0.09-1.13-0.15-1.7c-0.06-0.73-0.13-1.45-0.2-2.18c-0.06-0.55-0.11-1.11-0.17-1.66c-0.07-0.73-0.15-1.44-0.23-2.16
		c-0.05-0.54-0.11-1.08-0.17-1.62c-0.08-0.72-0.17-1.44-0.25-2.16c-0.06-0.52-0.12-1.04-0.18-1.56c-0.09-0.73-0.19-1.44-0.28-2.16
		c-0.06-0.5-0.12-0.99-0.19-1.48c-0.09-0.73-0.19-1.45-0.29-2.17c-0.07-0.47-0.13-0.95-0.2-1.41c-0.1-0.75-0.21-1.5-0.32-2.24
		c-0.07-0.42-0.13-0.84-0.19-1.26c-0.12-0.77-0.24-1.54-0.36-2.3c-0.06-0.38-0.11-0.75-0.17-1.12c-0.14-0.84-0.27-1.66-0.41-2.48
		c-0.05-0.28-0.09-0.58-0.14-0.86c-0.19-1.1-0.37-2.19-0.56-3.26c-0.65-3.66-1.33-7.21-2.03-10.65l28.56,5.5l1.61-8.31l-32.1-6.19
		c-5.98-26.56-12.53-44.22-12.86-45.12l-2.61-6.99l-4.67,5.82c-0.83,1.04-1.69,2.07-2.56,3.08c-0.27,0.31-0.55,0.62-0.82,0.93
		c-0.6,0.68-1.21,1.36-1.82,2.03c-0.35,0.37-0.7,0.74-1.04,1.1c-0.57,0.6-1.14,1.19-1.71,1.77c-0.38,0.38-0.76,0.75-1.14,1.12
		c-0.57,0.56-1.14,1.1-1.71,1.65c-0.21,0.19-0.42,0.39-0.64,0.58c0.98-3.54,2.05-7.09,3.21-10.66l-6.34-3.66l-1.16-0.67
		c-2.65,8.01-4.89,15.99-6.69,23.88C74.11,91.69,7.15,74.38,6.48,74.2L1.6,72.89l-0.44,5.03c-0.12,1.34-0.23,2.69-0.33,4.02
		l8.38,1.48v-0.01c0.08,0.021,0.16,0.03,0.24,0.05c1.89,0.39,4.26,0.82,7.05,1.25l0.23,0.04c7.41,1.12,17.68,2.19,29.62,2.19H47
		c20.25,0,48.72-3.47,74.63-18.93l-0.15,0.75l6.77-4.89c0.76-0.52,1.52-1.03,2.28-1.58c6.43-4.68,12.42-10.1,17.85-16.08
		c5.69,17.48,19.67,65.66,19.61,116.79c-0.03,21.59-2.56,43.71-9.27,64.26l-0.02,0.07c-8.64,26.43-23.36,47.6-43.77,62.94
		c-7.45-3.63-33.01-17.36-57.01-45.07c-16.59-19.15-29.21-41.15-37.52-65.39c-7.45-21.74-11.42-45.42-11.89-70.6L0,107.71
		c0.34,26.77,4.51,51.93,12.47,75.08c8.71,25.31,21.94,48.28,39.32,68.26c29.61,34.05,60.67,47.47,61.97,48.02l2.2,0.93l1.93-1.39
		c20.98-15.12,36.51-35.75,46.27-61.37c6.9,8.45,11.81,12.9,12.06,13.13l1.77,1.59l2.29-0.69c28.65-8.63,52.78-26.58,71.72-53.33
		c15-21.19,26.77-47.91,34.98-79.44C300.89,65.1,299.78,15.52,299.77,15.02z"/>
	
		<rect id="XMLID_19_" x="39.49" y="132.155" transform="matrix(0.974 -0.2265 0.2265 0.974 -29.382 16.7268)" class="st0" width="37.409" height="8.474"/>
	
		<rect id="XMLID_18_" x="113.272" y="102.435" transform="matrix(0.2266 0.974 -0.974 0.2266 208.8761 -20.7596)" class="st0" width="8.474" height="37.409"/>
	<path id="XMLID_17_" class="st0" d="M86.286,212.45c-14.996-0.422-25.999-6.136-26.109-6.193L58.194,210l-1.991,3.739
		c0.506,0.27,12.583,6.603,29.46,7.169c0.76,0.025,1.533,0.039,2.325,0.039c15.519,0,37.109-5.216,56.106-28.493l-6.565-5.357
		C123.345,204.477,106.103,213.029,86.286,212.45z"/>
	
		<rect id="XMLID_16_" x="221.433" y="95.905" transform="matrix(-0.9819 -0.1892 0.1892 -0.9819 456.9852 243.9186)" class="st0" width="37.409" height="8.474"/>
</g>
</svg>