<!-- Generator: Adobe Illustrator 19.0.0, SVG Export Plug-In  -->
<svg version="1.1"
	 xmlns="http://www.w3.org/2000/svg" xmlns:xlink="http://www.w3.org/1999/xlink" xmlns:a="http://ns.adobe.com/AdobeSVGViewerExtensions/3.0/"
	 x="0px" y="0px" width="80px" height="80px" viewBox="0 0 80 80" style="enable-background:new 0 0 80 80;" xml:space="preserve">
<style type="text/css">
	.st0{fill:#FFFFFF;}
</style>
<defs>
</defs>
<g id="XMLID_15_">
	<path id="XMLID_22_" class="st0" d="M40,0C17.944,0,0,17.944,0,40c0,22.056,17.944,40,40,40s40-17.944,40-40
		C80,17.944,62.056,0,40,0z M40,75.424C20.468,75.424,4.576,59.532,4.576,40C4.576,20.468,20.468,4.576,40,4.576
		S75.424,20.468,75.424,40C75.424,59.532,59.532,75.424,40,75.424z"/>
	<path id="XMLID_19_" class="st0" d="M60.708,25.407c0-2.637-3.234-4.184-5.914-4.184H25.477c-2.681,0-4.769,1.547-4.769,4.184
		v29.476c0,2.637,2.088,4.34,4.769,4.34h29.317c2.681,0,5.914-1.703,5.914-4.34V25.407z M54.708,55.968
		c0,0.14-0.114,0.254-0.254,0.254H24.962c-0.14,0-0.254-0.114-0.254-0.254V26.477c0-0.14,0.114-0.254,0.254-0.254h29.492
		c0.14,0,0.254,0.114,0.254,0.254V55.968z"/>
	<rect id="XMLID_18_" x="45.708" y="29.223" class="st0" width="7" height="3"/>
	<circle id="XMLID_17_" class="st0" cx="40" cy="41.937" r="5.167"/>
	<path id="XMLID_16_" class="st0" d="M48.242,42.405c0,4.552-3.69,7.997-8.242,7.997s-8.242-3.322-8.242-7.874l0.011-3.305h-3.061
		v12h24v-12h-4.446L48.242,42.405z"/>
</g>
</svg>