<!-- Generator: Adobe Illustrator 19.0.0, SVG Export Plug-In  -->
<svg version="1.1"
	 xmlns="http://www.w3.org/2000/svg" xmlns:xlink="http://www.w3.org/1999/xlink" xmlns:a="http://ns.adobe.com/AdobeSVGViewerExtensions/3.0/"
	 x="0px" y="0px" width="80px" height="80px" viewBox="0 0 80 80" style="enable-background:new 0 0 80 80;" xml:space="preserve">
<style type="text/css">
	.st0{fill:#FFFFFF;}
</style>
<defs>
</defs>
<g id="XMLID_15_">
	<path id="XMLID_17_" class="st0" d="M40,0C17.944,0,0,17.944,0,40s17.944,40,40,40s40-17.944,40-40S62.056,0,40,0z M40,75.424
		C20.467,75.424,4.576,59.532,4.576,40S20.467,4.576,40,4.576S75.424,20.468,75.424,40S59.533,75.424,40,75.424z"/>
	<path id="XMLID_16_" class="st0" d="M59.194,26.468c-1.612,0.978-3.396,1.677-5.293,2.041c-1.52-1.729-3.687-2.83-6.085-2.871
		c-4.603-0.075-8.336,3.814-8.336,8.689c0,0.693,0.072,1.365,0.216,2.014c-6.933-0.446-13.076-4.055-17.186-9.495
		c-0.717,1.304-1.129,2.827-1.129,4.459c0,3.087,1.668,5.831,3.905,7.451c-1.369-0.062-2.58-0.477-3.58-1.156
		c0,0.038,0,0.075,0,0.113c0,4.315,2.678,7.931,6.493,8.775c-0.7,0.199-1.536,0.302-2.294,0.299
		c-0.538-0.003-1.109-0.062-1.617-0.172c1.06,3.537,4.116,6.12,7.762,6.205c-2.854,2.367-6.461,3.78-10.365,3.77
		c-0.672,0-1.344-0.045-1.996-0.127c3.691,2.532,8.068,4.007,12.778,4.007c15.33,0.004,23.712-13.34,23.712-24.917
		c0-0.381-0.008-0.758-0.025-1.132c1.629-1.214,3.042-2.734,4.161-4.473c-1.496,0.672-3.101,1.122-4.789,1.31
		C57.249,30.196,58.57,28.502,59.194,26.468z"/>
</g>
</svg>