<!-- Generator: Adobe Illustrator 19.0.0, SVG Export Plug-In  -->
<svg version="1.1"
	 xmlns="http://www.w3.org/2000/svg" xmlns:xlink="http://www.w3.org/1999/xlink" xmlns:a="http://ns.adobe.com/AdobeSVGViewerExtensions/3.0/"
	 x="0px" y="0px" width="80px" height="80px" viewBox="0 0 80 80" style="enable-background:new 0 0 80 80;" xml:space="preserve">
<style type="text/css">
	.st0{fill:#FFFFFF;}
</style>
<defs>
</defs>
<g id="XMLID_15_">
	<path id="XMLID_29_" class="st0" d="M40,0C17.944,0,0,17.944,0,40s17.944,40,40,40s40-17.944,40-40S62.056,0,40,0z M40,75.424
		C20.467,75.424,4.576,59.532,4.576,40S20.467,4.576,40,4.576S75.424,20.468,75.424,40S59.533,75.424,40,75.424z"/>
	<path id="XMLID_26_" class="st0" d="M39.085,34.233c1.103,0,1.383-0.297,2.021-0.881c0.626-0.589,1.075-1.408,1.075-2.451v-5.076
		c0-0.931-0.441-1.843-0.973-2.378c-0.615-0.615-0.992-0.972-2.001-0.972c-1.108,0-1.419,0.42-2.076,0.972
		c-0.657,0.563-0.95,1.363-0.95,2.302v5.099c0,1.038,0.292,1.859,0.928,2.477C37.748,33.931,38.024,34.233,39.085,34.233z
		 M38.181,25.664c0-0.268,0.014-0.482,0.197-0.644c0.185-0.167,0.384-0.25,0.684-0.25c0.321,0,0.539,0.083,0.74,0.25
		c0.196,0.162,0.38,0.375,0.38,0.644v5.415c0,0.331-0.203,0.584-0.393,0.774c-0.203,0.183-0.387,0.274-0.718,0.274
		c-0.323,0-0.516-0.091-0.683-0.274c-0.177-0.18-0.206-0.438-0.206-0.774V25.664z"/>
	<path id="XMLID_25_" class="st0" d="M45.869,33.86c0.587-0.446,1.312-1.069,1.312-2V34h2V22h-2v8.265
		c0,0.268-0.976,1.645-1.158,1.645c-0.224,0-0.426-0.063-0.53-0.193c-0.101-0.128-0.312-0.334-0.312-0.623V22h-1v9.931
		c0,0.733-0.255,1.799,0.136,2.195C44.583,34.395,45.105,34.444,45.869,33.86z"/>
	<path id="XMLID_24_" class="st0" d="M44.181,48.382c0-0.357-0.388-0.632-0.524-0.822c-0.157-0.185-0.435-0.27-0.704-0.27
		c-0.151,0-0.188,0.03-0.334,0.101c-0.136,0.065-0.439,0.176-0.439,0.32v7.594c0,0.167,0.311,0.3,0.475,0.375
		c0.154,0.081,0.245,0.12,0.42,0.12c0.248,0,0.534-0.078,0.651-0.232c0.112-0.143,0.453-0.388,0.453-0.73V48.39l0,0V48.382z"/>
	<polygon id="XMLID_23_" class="st0" points="30.181,34 32.181,34 32.181,29.269 35.922,19 33.136,19 31.441,25 31.272,25 
		29.494,19 26.73,19 30.181,29.572 	"/>
	<path id="XMLID_17_" class="st0" d="M53.557,38H26.446c-4.309,0-8.265,3.585-8.265,7.991v7.391c0,4.398,3.956,7.618,8.265,7.618
		h27.111c4.312,0,7.624-3.22,7.624-7.618v-7.391C61.181,41.585,57.869,38,53.557,38z M30.181,58h-2V44h-1v-2h5v2h-2V58z M38.181,58
		h-2v-1.946c0,0.417-0.847,0.873-1.257,1.095c-0.401,0.235-0.837,0.336-1.223,0.336c-0.469,0-0.845-0.154-1.082-0.472
		c-0.24-0.318-0.438-0.785-0.438-1.416V46h2v8.878c0,0.248,0.029,0.425,0.112,0.54c0.089,0.107,0.219,0.167,0.409,0.167
		c0.146,0,0.478-0.073,0.708-0.227c0.229-0.143,0.77-0.336,0.77-0.555V46h2V58z M45.181,55.132c0,0.756,0.163,1.33-0.15,1.734
		c-0.323,0.398-0.624,0.609-1.221,0.609c-0.404,0-0.606-0.083-0.916-0.242c-0.305-0.151-0.713-0.386-0.713-0.719V58h-2V42h2v4.577
		c0-0.323,0.561-0.574,0.853-0.743c0.316-0.169,0.558-0.255,0.879-0.255c0.639,0,0.784,0.237,1.118,0.691
		c0.336,0.454,0.15,1.118,0.15,1.989V55.132z M53.181,52h-3v2.229c0,0.542-0.129,0.91,0.001,1.121
		c0.133,0.206,0.247,0.313,0.573,0.313c0.323,0,0.321-0.089,0.452-0.266c0.128-0.177-0.025-0.555-0.025-1.168V54h2v0.297
		c0,1.048-0.047,1.833-0.548,2.362c-0.5,0.522-1.144,0.79-2.122,0.79c-0.892,0-1.819-0.279-2.33-0.847
		c-0.508-0.547-1.001-1.322-1.001-2.305v-4.588c0-0.879,0.566-2.503,1.124-3.05c0.566-0.566,1.419-0.837,2.302-0.837
		c0.91,0,1.483,0.253,1.961,0.764c0.495,0.527,0.613,2.161,0.613,3.123V52z"/>
	<path id="XMLID_16_" class="st0" d="M50.665,47.602c-0.31,0-0.34,0.094-0.476,0.279c-0.135,0.18-0.009,1.384-0.009,1.817V50h1
		v-0.302c0-0.433,0.103-1.637-0.032-1.817C51.021,47.696,50.968,47.602,50.665,47.602z"/>
</g>
</svg>