<!-- Generator: Adobe Illustrator 19.0.0, SVG Export Plug-In  -->
<svg version="1.1"
	 xmlns="http://www.w3.org/2000/svg" xmlns:xlink="http://www.w3.org/1999/xlink" xmlns:a="http://ns.adobe.com/AdobeSVGViewerExtensions/3.0/"
	 x="0px" y="0px" width="300px" height="299.39px" viewBox="0 0 300 299.39" style="enable-background:new 0 0 300 299.39;"
	 xml:space="preserve">
<style type="text/css">
	.st0{fill:#99BEC4;}
</style>
<defs>
</defs>
<g id="XMLID_15_">
	<path id="XMLID_18_" class="st0" d="M204.92,0c-52.521,0-95.09,42.57-95.09,95.08c0,24.18,9.03,46.24,23.89,63.021L0,291.82
		l7.58,7.57l83.35-83.35l-0.06-0.06l57.94-57.94c-17.34-15.45-28.27-37.95-28.27-62.96c0-46.52,37.86-84.37,84.38-84.37
		c46.52,0,84.37,37.85,84.37,84.37c0,46.53-37.85,84.38-84.37,84.38c-12.17,0-23.74-2.59-34.2-7.24l-8.06,8.06
		c12.73,6.33,27.08,9.89,42.26,9.89c52.51,0,95.08-42.57,95.08-95.09C300,42.57,257.43,0,204.92,0z"/>
	<path id="XMLID_17_" class="st0" d="M142.613,65.425l9.738,4.464c0.591-1.277,14.831-31.272,47.103-32.005l-0.244-10.71
		C160.132,28.062,143.31,63.9,142.613,65.425z"/>
	<path id="XMLID_16_" class="st0" d="M169.302,62.028l8.201,6.892c0.067-0.078,6.815-7.926,14.726-8.478l-0.746-10.687
		C178.986,50.627,169.692,61.563,169.302,62.028z"/>
</g>
</svg>