<!-- Generator: Adobe Illustrator 19.0.0, SVG Export Plug-In  -->
<svg version="1.1"
	 xmlns="http://www.w3.org/2000/svg" xmlns:xlink="http://www.w3.org/1999/xlink" xmlns:a="http://ns.adobe.com/AdobeSVGViewerExtensions/3.0/"
	 x="0px" y="0px" width="80px" height="80px" viewBox="0 0 80 80" style="enable-background:new 0 0 80 80;" xml:space="preserve">
<style type="text/css">
	.st0{fill:#FFFFFF;}
</style>
<defs>
</defs>
<g id="XMLID_20_">
	<path id="XMLID_22_" class="st0" d="M40,0C17.944,0,0,17.944,0,40s17.944,40,40,40s40-17.944,40-40S62.056,0,40,0z M40,75.423
		C20.467,75.423,4.576,59.532,4.576,40S20.467,4.576,40,4.576S75.424,20.468,75.424,40S59.533,75.423,40,75.423z"/>
	<path id="XMLID_21_" class="st0" d="M49.264,18.137H43.84c-4.439,0-8.115,3.768-8.115,8.208v5.792h-4.989
		c-1.264,0-2.288,1.236-2.288,2.5s1.024,2.5,2.288,2.5h4.989v21.073c0,1.264,0.736,2.288,2,2.288c1.264,0,2-1.024,2-2.288V37.137
		h8.459c1.264,0,2.288-1.236,2.288-2.5s-1.024-2.5-2.288-2.5h-8.459v-5.792c0-1.916,2.199-4.208,4.115-4.208h5.424
		c1.264,0,2.288-0.736,2.288-2S50.528,18.137,49.264,18.137z"/>
</g>
</svg>