<!-- Generator: Adobe Illustrator 19.0.0, SVG Export Plug-In  -->
<svg version="1.1"
	 xmlns="http://www.w3.org/2000/svg" xmlns:xlink="http://www.w3.org/1999/xlink" xmlns:a="http://ns.adobe.com/AdobeSVGViewerExtensions/3.0/"
	 x="0px" y="0px" width="300px" height="299.491px" viewBox="0 0 300 299.491" style="enable-background:new 0 0 300 299.491;"
	 xml:space="preserve">
<style type="text/css">
	.st0{fill:#99BEC4;}
</style>
<defs>
</defs>
<g id="XMLID_15_">
	<path id="XMLID_18_" class="st0" d="M150.162,150.116c41.453,0,75.058-33.604,75.058-75.058C225.22,33.604,191.615,0,150.162,0
		c-41.453,0-75.058,33.604-75.058,75.058C75.104,116.511,108.709,150.116,150.162,150.116z M150.162,8.499
		c36.701,0,66.559,29.858,66.559,66.559c0,36.701-29.858,66.559-66.559,66.559c-36.701,0-66.559-29.858-66.559-66.559
		C83.603,38.357,113.461,8.499,150.162,8.499z"/>
	<path id="XMLID_16_" class="st0" d="M300,265.971v-26.65c0-33.57-26.81-60.83-60.37-60.83H60.69c-16.78,0-31.93,6.83-42.93,17.83
		c-11,10.99-17.76,26.22-17.76,43v60.17h300v-8H8v-52.17c0-13.97,5.65-27.37,15.52-37.24s23.21-15.59,37.17-15.59h178.94
		c28.82,0,52.37,24.01,52.37,52.83v26.65H300z"/>
</g>
</svg>